<mxfile host="65bd71144e">
    <diagram id="Xh0aH0f-ixhpeuKLu7fr" name="ページ1">
        <mxGraphModel dx="2023" dy="917" grid="1" gridSize="10" guides="1" tooltips="1" connect="1" arrows="1" fold="1" page="1" pageScale="1" pageWidth="1169" pageHeight="827" math="0" shadow="0">
            <root>
                <mxCell id="0"/>
                <mxCell id="1" parent="0"/>
                <mxCell id="4" value="" style="outlineConnect=0;dashed=0;verticalLabelPosition=bottom;verticalAlign=top;align=center;html=1;shape=mxgraph.aws3.cloudfront;fillColor=#F58536;gradientColor=none;" vertex="1" parent="1">
                    <mxGeometry x="287" y="38" width="76.5" height="93" as="geometry"/>
                </mxCell>
                <mxCell id="6" value="Public subnet" style="points=[[0,0],[0.25,0],[0.5,0],[0.75,0],[1,0],[1,0.25],[1,0.5],[1,0.75],[1,1],[0.75,1],[0.5,1],[0.25,1],[0,1],[0,0.75],[0,0.5],[0,0.25]];outlineConnect=0;gradientColor=none;html=1;whiteSpace=wrap;fontSize=12;fontStyle=0;container=1;pointerEvents=0;collapsible=0;recursiveResize=0;shape=mxgraph.aws4.group;grIcon=mxgraph.aws4.group_security_group;grStroke=0;strokeColor=#248814;fillColor=#E9F3E6;verticalAlign=top;align=left;spacingLeft=30;fontColor=#248814;dashed=0;" vertex="1" parent="1">
                    <mxGeometry x="457" y="310" width="313" height="193" as="geometry"/>
                </mxCell>
                <mxCell id="13" value="" style="outlineConnect=0;dashed=0;verticalLabelPosition=bottom;verticalAlign=top;align=center;html=1;shape=mxgraph.aws3.ec2;fillColor=#F58534;gradientColor=none;" vertex="1" parent="6">
                    <mxGeometry x="177" y="63" width="88" height="97" as="geometry"/>
                </mxCell>
                <mxCell id="34" style="edgeStyle=none;html=1;startArrow=none;" edge="1" parent="6" target="13">
                    <mxGeometry relative="1" as="geometry">
                        <mxPoint x="163.05000000000018" y="111.82002239223743" as="sourcePoint"/>
                    </mxGeometry>
                </mxCell>
                <mxCell id="57" value="" style="shape=image;verticalLabelPosition=bottom;labelBackgroundColor=#ffffff;verticalAlign=top;aspect=fixed;imageAspect=0;image=data:image/svg+xml,PHN2ZyB4bWxucz0iaHR0cDovL3d3dy53My5vcmcvMjAwMC9zdmciIGhlaWdodD0iOTY2IiB2aWV3Qm94PSIwIDAgMjY0LjU4MzMzIDI1NS41ODc1MSIgd2lkdGg9IjEwMDAiPjxwYXRoIGQ9Im0xNTMuMzM4NDUgNDUuNjUyNDgxYy0xLjgwOTM0IDAtMy40ODk0NC4zODc3MjktNS4wNDAzMi45MDQ2NzMgMy4yOTU1OCAyLjE5NzA2IDUuMTA0OTMgNS4xMDQ5NjEgNi4wMDk2MyA4LjQwMDU1MS4wNjQ4LjQ1MjMzLjE5Mzg2Ljc3NTQ0NC4yNTg1NiAxLjIyNzc1OS4wNjQ4LjM4NzcyOS4xMjkxNi43NzU0NDQuMTI5MTYgMS4xNjMxNzEuMjU4NiA1LjY4NjUwOS0xLjQ4NjI4IDYuMzk3MzIzLTIuNzE0MDMgOS43NTc1NDMtMS44NzM5OCA0LjMyOTUyOS0xLjM1NzA0IDguOTgyMTMzLjkwNDY2IDEyLjczMDA3OS4xOTM4Ny40NTIzMTguNDUyMzQuOTY5Mjc1Ljc3NTQ2IDEuNDIxNjE4LTIuNDU1NTgtMTYuMzQ4NzU5IDExLjE3OTE5LTE4LjgwNDMwNCAxMy42OTkzMi0yMy45MDkyNC4xOTM4Ni00LjQ1ODc2MS0zLjQ4OTQ0LTcuNDMxMjYzLTYuMzk3MzEtOS40OTkwOTItMi43Nzg2NC0xLjY4MDEwNC01LjI5ODg0LTIuMTk3MDYyLTcuNjI1MTMtMi4xOTcwNjJ6bTIwLjU0OTAzIDMuNjgzMzE4Yy0uMjU4NTggMS40ODYyNDctLjA2NDcgMS4wOTg1My0uMTI5MTMgMS44NzM5NzMtLjA2NDcuNTE2OTQ1LS4wNjQ3IDEuMTYzMTU3LS4xMjkxNCAxLjY4MDEwMi0uMTI5MTQuNTE2OTU5LS4yNTg2IDEuMDMzOTA0LS40NTIzNiAxLjU1MDg4Ni0uMTI5MTMuNTE2OTQ1LS4zMjMwOSAxLjAzMzkwMy0uNTE2OTQgMS41NTA4NDctLjI1ODYuNTE2OTgzLS40NTIzNC45NjkzMDEtLjcxMDgyIDEuNDg2MjU4LS4xOTM4NS4yNTg1ODUtLjMyMzA5LjUxNjk0NS0uNTE2OTUuNzc1NDQzLS4xMjkxNC4xOTM4NTctLjI1ODU4LjM4NzcxNS0uMzg3NzEuNTgxNTcyLS4zMjMwOS40NTIzNTUtLjY0NjIxLjkwNDY3My0uOTY5MjkgMS4yOTIzODctLjM4Nzc0LjM4NzcyOS0uNzEwODMuODQwMDQ2LTEuMTYzMTkgMS4xNjMxNzF2LjA2NDdjLS4zODc3MS4zMjMxLS43NzU0My43MTA4MTUtMS4yMjc3NSAxLjAzMzkwMy0xLjM1NzAyIDEuMDMzOTAyLTIuOTA3ODcgMS44MDkzNDQtNC4zMjk1MiAyLjc3ODY0NC0uNDUyMzEuMzIzMDg4LS45MDQ2OC41ODE1ODctMS4yOTIzOC45NjkzLS40NTIzMy4zMjMwODgtLjg0MDA2LjY0NjE3Ni0xLjIyNzc2IDEuMDMzOTAzLS40NTIzNi4zODc3MTUtLjc3NTQ1Ljc3NTQ0Mi0xLjE2MzE4IDEuMjI3Nzg0LS4zMjMwOS4zODc3MjgtLjcxMDguODQwMDQ4LS45NjkyNyAxLjI5MjQwMi0uMzIzMTIuNDUyMzE3LS42NDYyLjkwNDY2MS0uOTA0NyAxLjM1Njk5LS4yNTg1Ny41MTY5NDQtLjQ1MjMzLjk2OTI5OS0uNzEwODEgMS40ODYyNDUtLjE5Mzg1LjUxNjk0NC0uMzg3NzMuOTY5MzAxLS41MTY5NSAxLjQ4NjI0NC0uMTkzODYuNTgxNTg2LS4zMjMxIDEuMDk4NTQ0LS40NTIzNCAxLjYxNTUxNC0uMDY0Ny4yNTg1ODMtLjA2NDcuNTgxNTYtLjEyOTE0Ljg0MDA0NS0uMDY0OC4yNTg1ODQtLjA2NDguNTE2OTQ1LS4xMjkxMy43NzU0NDMgMCAuNTE2OTQ0LS4wNjQ3IDEuMDk4NTMtLjA2NDcgMS42MTU0NzUgMCAuMzg3NzI3IDAgLjc3NTQ0MS4wNjQ3IDEuMTYzMTY5IDAgLjUxNjk0Ni4wNjQ3IDEuMDMzODkyLjE5Mzg1IDEuNjE1NDc2LjA2NDcuNTE2OTQ0LjE5Mzg0IDEuMDMzOTAyLjMyMzEyIDEuNTUwODg1LjE5Mzg2LjUxNjk0NC4zMjMxIDEuMDMzOTAyLjUxNjk0IDEuNTUwODQ3LjEyOTE2LjMyMzEyNi4zMjMwOS42NDYyMTMuNDUyMzYuOTA0NjczbC0xNC44NjI1Mi01Ljc1MTE0Yy0yLjUyMDE4LS43MTA4MTUtNC45NzU3LTEuMzU2OTktNy40OTU4OC0xLjkzODU3Ni0xLjM1Ny0uMzIzMDg3LTIuNzE0LS42NDYxOTgtNC4wNzEwMi0uOTY5Mjk5LTMuODc3MTktLjc3NTQzLTcuODE4OTUtMS4zNTY5OTEtMTEuNzYwNzYtMS43NDQ3MDUtLjEyOTEzIDAtLjE5Mzg1LS4wNjQ3MS0uMzIzMDktLjA2NDcxLTMuODc3Mi0uMzg3NzE0LTcuNjg5NzMtLjU4MTU3Mi0xMS41NjY5LS41ODE1NzItMi44NDMyOCAwLTUuNjg2NTYuMTI5MTMxLTguNDY1MjAxLjMyMzA4OC0zLjk0MTc5OC4yNTg1ODQtNy44ODM2MDIuNzc1NDQyLTExLjgyNTM3MyAxLjQyMTYxNy0uOTY5MzAyLjEyOTE0NC0xLjkzODYwMi4zMjMxMjUtMi45MDc5MDUuNTE2OTg0LTIuMDAzMTk5LjM4NzY4OS0zLjk0MTc3MS44NDAwNDQtNS44MTU3NDIgMS4yOTIzODYtLjk2OTMuMjU4NTg0LTEuOTM4NjAyLjUxNjk1OC0yLjkwNzkwMy43NzU0MTktLjk2OTI3LjM4NzcxMy0xLjg3Mzk0Ljg0MDA3LTIuNzc4NjQyIDEuMjI3Nzg0LS43MTA4MTEuMzIzMDg4LTEuNDIxNjE5LjY0NjE4Ny0yLjEzMjQzMS45NjkzLS4xMjkxMzkuMDY0NzEtLjI1ODU4LjA2NDcxLS4zMjMwOS4xMjkxNDQtLjY0NjIxLjMyMzA4Ny0xLjIyNzc5LjU4MTU0Ny0xLjgwOTM0MS45MDQ2NzEtLjE5Mzg2MS4wNjQ3MS0uMzIzMTIyLjEyOTEzMi0uNDUyMzUxLjE5Mzg1OS0uNzEwODEuMzIzMDg5LTEuNDIxNjE4LjcxMDgwMy0yLjAwMzIwMSAxLjAzMzkwMi0uNDUyMzUuMTkzODU4LS45MDQ2Ny40NTIzNDMtMS4yOTIzODkuNjQ2MjEzLS4xOTM4NjIuMTI5MTMxLS40NTIzNTMuMjU4NTcyLS41ODE1ODIuMzIzMDg4LS41ODE1NzkuMzIzMDg4LTEuMTYzMTYuNjQ2MTc0LTEuNjgwMTExLjk2OTMtLjU4MTU4MS4zMjMwODctMS4wOTg1MzIuNjQ2MTc1LTEuNTUwODgyLjk2OTI2My0uNDUyMzE4LjMyMzEyNS0uOTA0NjY3LjU4MTU4NS0xLjI5MjM5LjkwNDY3Mi0uMDY0NzQuMDY0NzEtLjEyOTEzOS4wNjQ3MS0uMTkzODYxLjEyOTE0NS0uMzg3NzE5LjI1ODU4My0uODQwMDM5LjU4MTU3MS0xLjIyNzc1OC45MDQ2OTYgMCAwLS4wNjQ3My4wNjQ3LS4xMjkxNC4xMjkxNDItLjMyMzA5LjI1ODU4NC0uNjQ2MjEyLjUxNjk0Ny0uOTY5MzAxLjc3NTQwNy0uMTI5MTM4LjA2NDcxLS4yNTg1ODEuMTkzODU3LS4zODc3Mi4yNTg1ODMtLjMyMzA5LjI1ODU4Ni0uNjQ2MTguNTgxNTg2LS45NjkyNzEuODQwMDctLjA2NDczLjEyOTE0My0uMTkzODU5LjE5Mzg1OC0uMjU4NTgxLjI1ODU4NS0uMzg3NzIuMzg3NzE1LS43NzU0NDEuNzEwODAyLTEuMTYzMTYxIDEuMDk4NTMtLjA2NDczIDAtLjA2NDczLjA2NDcxLS4xMjkxMzkuMTI5MTMxLS4zODc3Mi4zMjMxLS43NzU0MzkuNzEwODE2LTEuMTYzMTU5IDEuMDk4NTQzLS4wNjQ3My4wNjQ3MS0uMDY0NzMuMTI5MTMtLjEyOTE0LjEyOTEzLS4zMjMwOS4zMjMwODktLjY0NjE4LjY0NjIxMy0uOTY5MzAxIDEuMDMzOTAyLS4xMjkxMzcuMTI5MTQzLS4zMjMwOS4yNTg1ODYtLjQ1MjMxOS4zODc3MTUtLjMyMzA5LjM4NzcyOC0uNzEwODExLjc3NTQ0My0xLjA5ODUzIDEuMTYzMTcxLS4wNjQ3My4xMjkxMzItLjE5Mzg2LjE5Mzg1OC0uMjU4NTgyLjMyMzA4Ny0uNTE2OTUyLjUxNjk4My0uOTY5MzAyIDEuMDMzOTI4LTEuNDg2MjUyIDEuNTUwODg1LS4wNjQ3My4wNjQ3MS0uMTI5MTM4LjEyOTEyOC0uMTkzODU5LjE5Mzg1OC0xLjAzMzkzMSAxLjA5ODUyOS0yLjEzMjQ2MyAyLjE5NzA1OS0zLjI5NTU5NCAzLjE2NjM1Mi0xLjE2MzE1OSAxLjAzMzktMi4zOTA5MjIgMi4wMDMyLTMuNjE4NzExIDIuODQzMjUtMS4yOTIzOTIuOTA0Ny0yLjUyMDE1MiAxLjY4MDExLTMuODc3MTczIDIuNDU1NTUtMS4yOTIzOTIuNzEwNzktMi42NDk0MTIgMS4zNTcwMS00LjA3MTAzMiAxLjkzODYtMS4zNTcwMjIuNTgxNTctMi43Nzg2NDEgMS4wOTg1NC00LjIwMDI2NCAxLjU1MDg1LTIuNzE0MDQxLjU4MTU3LTUuNDkyNjg0IDEuNjgwMTEtNy44ODM2MDUgMS44NzM5Ny0uNTE2OTUgMC0xLjA5ODUzMS4xMjkxNS0xLjYxNTQ4Mi4xOTM4NS0uNTgxNTc4LjEyOTE0LTEuMDk4NTI5LjI1ODU5LTEuNjE1NDc5LjM4Nzc0LS41MTY5NTEuMTkzODQtMS4wMzM5MzEuMzg3NzEtMS41NTA4ODMuNTgxNTYtLjUxNjk1MS4xOTM4Ni0xLjAzMzkwMS40NTIzNS0xLjU1MDg1Mi43MTA4My0uNDUyMzUuMzIzMDgtLjk2OTI5OS41ODE1Ny0xLjQyMTY1MS45MDQ2Ni0uNDUyMzIyLjMyMzA5LS45MDQ2NzIuNzEwOC0xLjI5MjM5MyAxLjA5ODUzLS40NTIzMTkuMzIzMTItLjkwNDY2OS43NzU0NS0xLjI5MjM5IDEuMTYzMTUtLjM4NzcyMS40NTIzNy0uNzc1NDQuODQwMDgtMS4wOTg1MzA0IDEuMjkyMzktLjMyMzA5MDEuNTE2OTUtLjcxMDgxMDguOTY5MzEtLjk2OTMwMTYgMS40ODYyNy0uMzIzMDkuNDUyMzUtLjY0NjE3OTkuOTY5MjktLjkwNDY3MDcgMS40ODYyMi0uMjU4NTgxNS41ODE2MS0uNTE2OTQ5OCAxLjA5ODU1LS43MTA4MTA3IDEuNjgwMTQtLjE5Mzg1OTkuNTE2OTUtLjM4NzcxOTkgMS4wOTg1Mi0uNTgxNTc5OSAxLjY4MDExLS4xMjkxMzgyLjUxNjk0LS4yNTg1ODEzIDEuMDMzOS0uMzIzMDg5OCAxLjU1MDgzIDAgLjA2NDgtLjA2NDcxOS4xMjkxNi0uMDY0NzE5LjE5Mzg3LS4xMjkxMzkyLjU4MTYxLS4xMjkxMzkyIDEuMzU3MDYtLjE5Mzg2MDggMS43NDQ3OS0uMDY0NzE5LjQ1MjMyLS4xMjkxMzczLjg0MDAyLS4xMjkxMzczIDEuMjkyMzggMCAuMjU4NTggMCAuNTgxNTUuMDY0NzE5Ljg0MDAzLjA2NDcxOS40NTIzNi4xMjkxMzcxLjg0MDA3LjI1ODU4MTQgMS4yMjc4Mi4xMjkxMzgyLjM4NzY2LjI1ODU4MTUuNzc1MzkuNDUyMzIwMSAxLjE2MzEydi4wNjQ3Yy4xOTM4NTk5LjM4Nzc1LjQ1MjM1MDYuNzc1NDUuNzEwODEwOCAxLjE2MzE3LjI1ODU4MTQuMzg3NzIuNTE2OTgwNC43NzU0NC44NDAwNzA0IDEuMTYzMTcuMzIzMDg5OS4zMjMwOS43MTA4MTA5LjcxMDc4IDEuMDk4NTMwNCAxLjAzMzg5LjM4NzcyMDkuMzg3NzIuNzc1NDQyMS43MTA4MSAxLjIyNzc2MTEgMS4wMzM5IDEuNTUwODgxIDEuMzU3MDMgMS45Mzg2MDEgMS44MDkzOCAzLjk0MTgwNiAyLjg0MzI3LjMyMzA4Ny4xOTM4Ny42NDYyMS4zMjMxMSAxLjAzMzkzLjUxNjk3LjA2NDczIDAgLjEyOTEzOS4wNjQ3LjE5Mzg1OS4wNjQ3IDAgLjEyOTEzIDAgLjE5Mzg3LjA2NDczLjMyMzEzLjA2NDcyLjUxNjk2LjE5Mzg1OSAxLjAzMzg5LjMyMzA5IDEuNTUwODYuMTI5MTM4LjU4MTU4LjMyMzEyMSAxLjA5ODU1LjUxNjk4MSAxLjU1MDg3LjE5Mzg2LjM4NzczLjMyMzA5Ljc3NTQzLjUxNjk1MSAxLjE2MzE3LjA2NDcyLjEyOTE1LjEyOTE0LjI1ODU4LjE5Mzg2LjMyMzA5LjI1ODU4MS41MTY5NC41MTY5NS45NjkzMi43NzU0MSAxLjQyMTYyLjMyMzEyMS40NTIzMy42NDYyMS45MDQ2Ni45NjkyOTkgMS4zNTcwMy4zMjMwOTIuMzg3Ny43MTA4MTMuODQwMDQgMS4wOTg1MzIgMS4yMjc3NS4zODc3MjEuMzg3NzMuNzc1NDQyLjcxMDgzIDEuMjI3NzkzIDEuMDk4NTIgMCAwIC4wNjQ3My4wNjQ4LjEyOTEzNy4wNjQ4LjM4NzcyMi4zMjMxMi43NzU0NC42NDYyMiAxLjE2MzE2Mi45MDQ2Ni40NTIzMi4zMjMxMS45MDQ2Ny41ODE1NyAxLjQyMTYxOS44NDAwNy40NTIzNTEuMjU4NTguOTY5MzAyLjUxNjk1IDEuNDg2MjUyLjcxMDgyLjM4NzcyMS4xOTM4Ni44NDAwNC4zMjMxMSAxLjI5MjM5Mi40NTIzNC4wNjQ3My4wNjQ4LjEyOTEzOC4wNjQ4LjI1ODU4Mi4xMjkxNi4yNTg1ODEuMDY0OC41ODE1NDguMTI5MTIuODQwMDM5LjE5Mzg0LS4xOTM4NTkgMy40ODk0NS0uMjU4NTgyIDYuNzg1MDQuMjU4NTgzIDcuOTQ4MjIuNTgxNTUgMS4yOTIzOCAzLjQyNDgyMS0yLjY0OTQxIDYuMjY4MDk0LTcuMTcyNzctLjM4NzcxOSA0LjQ1ODc1LS42NDYyMTEgOS42OTI5IDAgMTEuMjQzODEuNzEwODA5IDEuNjE1NDUgNC41ODc5ODItMy40MjQ4NyA3Ljk0ODIwMy04Ljk4MjE1IDQ1LjgxNTI2Mi0xMC41OTc1NyA4Ny42MjQxOCAyMS4wNjYgOTIuMDE4MjkgNjUuNzgyNzMtLjg0MDA2LTYuOTc4OTItOS40MzQ0Ni0xMC44NTYwOC0xMy4zNzYyMy05Ljg4Njc3LTEuOTM4NjEgNC43ODE4My01LjIzNDIgMTAuOTIwNjgtMTAuNTMyOTkgMTQuNzMzMjQuNDUyMzMtNC4yNjQ5LjI1ODU2LTguNjU5MDEtLjY0NjE5LTEyLjkyMzkyLTEuNDIxNjUgNS45NDUwMS00LjIwMDMgMTEuNTAyMzItOC4wMTI4NyAxNi4yODQxNS02LjEzODg1Ny40NTIzMi0xMi4yNzc3MjktMi41MjAxOS0xNS41MDg3Mi02Ljk3ODkxLS4yNTg1ODItLjE5Mzg4LS4zMjMwOTEtLjU4MTU5LS41MTY5NTEtLjg0MDA2LS4xOTM4NjItLjQ1MjM4LS4zODc3MTktLjkwNDY3LS41MTY5NTEtMS4zNTcwMy0uMTkzODU5LS40NTIzMi0uMzIzMDg5LS45MDQ2Ny0uMzg3NzE5LTEuMzU2OTktLjA2NDczLS40NTIzNi0uMDY0NzMtLjkwNDY5LS4wNjQ3My0xLjQyMTYzIDAtLjMyMzEyIDAtLjY0NjIgMC0uOTY5MjguMDY0NzMtLjQ1MjM4LjE5Mzg2LS45MDQ3MS4zMjMwOTEtMS4zNTcwNS4xMjkxMzgtLjQ1MjMyLjI1ODU4LS45MDQ2Ny40NTIzNS0xLjM1NzAxLjI1ODU4Mi0uNDUyMzEuNDUyMzItLjkwNDY2Ljc3NTQ0MS0xLjM1Njk4IDEuMDk4NTMtMy4xMDE3OCAxLjA5ODUzLTUuNjIxOTItLjkwNDY3LTcuMTA4MTYtLjM4NzcyMS0uMjU4NTgtLjc3NTQ0MS0uNDUyMzYtMS4yMjc3OTEtLjY0NjIyLS4yNTg1ODQtLjA2NDctLjU4MTU4Mi0uMTkzODYtLjg0MDA0LS4yNTg1Ny0uMTkzODYxLS4wNjQ3LS4zMjMwOS0uMTI5MTYtLjUxNjk1MS0uMTkzODctLjQ1MjM1MS0uMTI5MTQtLjkwNDcwMi0uMjU4NTktMS4zNTcwMjItLjMyMzA5LS40NTIzNS0uMTI5MTMtLjkwNDY3LS4xOTM4Ni0xLjM1NzAyLS4xOTM4Ni0uNDUyMzIxLS4wNjQ4LS45NjkzMDMtLjEyOTE0LTEuNDIxNjIyLS4xMjkxNC0uMzIzMDg5IDAtLjY0NjIxLjA2NDctLjk2OTMwMS4wNjQ3LS41MTY5NDkgMC0uOTY5Mjk5LjA2NDgtMS40MjE2MjEuMTkzODYtLjQ1MjM1LjA2NDgtLjkwNDY2OS4xMjkxMy0xLjM1NzAxOS4yNTg1Ni0uNDUyMzIyLjEyOTE1LS45MDQ2NzMuMjU4NTktMS4zNTcwMjMuNDUyMzgtLjQ1MjMxOS4xOTM4NS0uODQwMDQxLjM4NzcxLTEuMjkyMzg5LjU4MTU3LS4zODc2OS4xOTM4Ny0uNzc1NDEyLjQ1MjMyLTEuMjI3NzYxLjY0NjE4LTE1LjA1NjM3MSA5LjgyMjE3LTYuMDc0MjM1IDMyLjgyNjc0IDQuMjAwMjY0IDM5LjQ4MjU2LTMuODc3MTc1LjcxMDgxLTcuODE4OTQ3IDEuNTUwOS04LjkxNzQ3OSAyLjM5MDkyLS4wNjQ3My4wNjQ3LS4xMjkxMzguMTI5MTUtLjEyOTEzOC4xMjkxNSAyLjc3ODY0MiAxLjY4MDA5IDUuNjg2NTE2IDMuMTAxNzMgOC43MjM2MTYgNC4zMjk0OSA0LjEzNTY2NSAxLjM1NzAyIDguNTI5Nzg2IDIuNTg0NzkgMTAuNDY4Mzg3IDMuMTAxNzZ2LjA2NDdjNS4zNjM0MjQgMS4wOTg1NCAxMC43OTE0OCAxLjQ4NjI2IDE2LjI4NDEzOSAxLjE2MzE3IDI4LjYyNjQ5LTIuMDAzMjEgNTIuMDgzNC0yMy43ODAwMyA1Ni4zNDgzLTUyLjQ3MTExLjEyOTE0LjU4MTU5LjI1ODU4IDEuMDk4NTIuMzg3NzIgMS42ODAxMi4xOTM4NyAxLjE2MzEyLjQ1MjMyIDIuMzkwOS41ODE1NSAzLjYxODY3di4wNjQ4Yy4xMjkxNC41ODE1OC4xOTM4NiAxLjE2MzE1LjI1ODU4IDEuNjgwMXYuMjU4NTljLjA2NDguNTgxNTcuMTI5MTUgMS4xNjMxNi4xMjkxNSAxLjY4MDEuMDY0Ny43MTA4Mi4xMjkxNCAxLjQyMTYyLjEyOTE0IDIuMTMyNDd2MS4wMzM5YzAgLjMyMzEyLjA2NDcuNzEwOC4wNjQ3IDEuMDMzOTIgMCAuMzg3NzMtLjA2NDcuNzc1NDItLjA2NDcgMS4xNjMxNHYuOTA0NjdjMCAuNDUyMzYtLjA2NDguODQwMDYtLjA2NDggMS4yOTI0IDAgLjI1ODU2IDAgLjUxNjk2LS4wNjQ3Ljg0MDA2IDAgLjQ1MjM2LS4wNjQ3LjkwNDY2LS4wNjQ3IDEuNDIxNjItLjA2NDguMTkzODYtLjA2NDguMzg3NzItLjA2NDguNTgxNTktLjA2NDcuNTE2OTYtLjEyOTE0Ljk2OTMtLjE5Mzg3IDEuNDg2MjYgMCAuMTkzODcgMCAuMzg3NzEtLjA2NDcuNTgxNTktLjA2NDguNjQ2MTctLjE5Mzg1IDEuMjI3NzctLjI1ODU1IDEuODczOTR2LjA2NDguMDY0N2MtLjEyOTE0LjU4MTU3LS4yNTg2IDEuMjI3NzYtLjM4Nzc1IDEuODA5MzN2LjE5Mzg3Yy0uMTI5MTIuNTgxNTYtLjI1ODU4IDEuMTYzMTYtLjM4NzcgMS43NDQ3MSAwIC4wNjQ4LS4wNjQ3LjE5Mzg3LS4wNjQ3LjI1ODU2LS4xMjkxNi41ODE2LS4yNTg2IDEuMTYzMTctLjQ1MjMyIDEuNzQ0Nzh2LjE5Mzg0Yy0uMTkzODYuNjQ2MTctLjM4NzczIDEuMjI3NzYtLjUxNjk4IDEuODA5MzQtLjA2NDcuMDY0Ny0uMDY0Ny4xMjkxNC0uMDY0Ny4xMjkxNC0uMTkzODcuNjQ2MjEtLjM4NzcxIDEuMjkyMzktLjU4MTU1IDEuOTM4NTgtLjI1ODU4LjY0NjIxLS40NTIzNCAxLjIyNzc4LS43MTA4MSAxLjg3Mzk4LS4yNTg1Ny42NDYyLS40NTIzNiAxLjI5MjQtLjcxMDgzIDEuODczOTYtLjI1ODU5LjY0NjIyLS41MTY5NyAxLjIyNzgtLjc3NTQzIDEuODczOTdoLS4wNjQ4Yy0uMjU4Ni41ODE1Ny0uNTE2OTkgMS4yMjc3OS0uODQwMSAxLjgwOTM4LS4wNjQ3LjE5MzgzLS4xMjkxMi4zMjMwOS0uMTkzODQuNDUyMy0uMDY0Ny4wNjQ4LS4wNjQ3LjEyOTE0LS4xMjkxNC4xOTM4OC00LjIwMDI2IDguNDY1MTQtMTAuNDAzNzcgMTUuODk2MzktMTguMTU4MDkgMjEuNzEyMTctLjUxNjk1LjMyMzA5LTEuMDMzOTIuNzEwODItMS41NTA4NiAxLjA5ODUyLS4xMjkxNS4xMjkxNS0uMzIzMTIuMTkzODgtLjQ1MjM1LjMyMzA5LS40NTIzNS4zMjMxLS45MDQ2OC42NDYxOC0xLjQyMTYxLjk2OTMxbC4xOTM4NS4zODc3MmguMDY0N2MuOTA0NjYtLjEyOTEzIDEuODA5MzQtLjI1ODU4IDIuNzE0MDItLjM4NzcyaC4wNjQ3YzEuNjgwMTItLjI1ODU4IDMuMzYwMjMtLjU4MTU4IDUuMDQwMzUtLjkwNDY3LjQ1MjMxLS4wNjQ4Ljk2OTMtLjE5Mzg1IDEuNDIxNjEtLjMyMzEyLjMyMzA5LS4wNjQ4LjU4MTU4LS4xMjkxMy45MDQ2Ny0uMTkzODYuNDUyMzUtLjA2NDguOTA0NjgtLjE5Mzg2IDEuMzU3MDQtLjI1ODU3LjM4NzctLjEyOTE0Ljc3NTQzLS4xOTM4OCAxLjE2MzE0LS4zMjMxIDYuNDYxOTUtMS41NTA4OSAxMi43MzAwNy0zLjY4MzM1IDE4LjczOTY1LTYuMjAzNDktMTAuMjc0NDggMTQuMDIyNDMtMjQuMDM4NDcgMjUuMzMwODctNDAuMTI4NzQgMzIuNzYyMTIgNy40MzEyNy0uNTE2OTYgMTQuODYyNTEtMS43NDQ3MiAyMi4wMzUyOC0zLjgxMjU0IDI2LjA0MTctNy42ODk3NyA0Ny45NDc3Mi0yNS4yMDE2NSA2MS4wNjU0OS00OC43ODc4LTIuNjQ5NCAxNC45MjcxNC04LjU5NDQgMjkuMTQzNDQtMTcuMzgyNjUgNDEuNTUwNDEgNi4yNjgwOS00LjEzNTY5IDEyLjAxOTIzLTguOTE3NTMgMTcuMjUzNDItMTQuMzQ1NTcgMTQuNDc0NzgtMTUuMTIwOTcgMjMuOTczODgtMzQuMzEyOTYgMjcuMjA0ODMtNTQuOTI2NjUgMi4xOTcwOCAxMC4yMDk5IDIuODQzMjggMjAuNzQyOTMgMS44NzM5OCAzMS4xNDY2NiA0Ni42NTUzNC02NS4wNzE5MiAzLjg3NzE3LTEzMi41MzQ3Ni0xNC4wMjI0NC0xNTAuMzA1MTQxLS4wNjQ4LS4xMjkxMzMtLjEyOTE0LS4xOTM4NTgtLjEyOTE0LS4zMjMwODktLjA2NDguMDY0Ny0uMDY0OC4wNjQ3LS4wNjQ4LjEyOTE0NCAwLS4wNjQ3MSAwLS4wNjQ3MS0uMDY0Ny0uMTI5MTQ0IDAgLjc3NTQ0Mi0uMDY0NyAxLjU1MDg0OC0uMTI5MTQgMi4zMjYyOTEtLjE5Mzg3IDEuNDg2MjUtLjM4NzcxIDIuOTA3ODc5LS42NDYyMSA0LjMyOTUyOS0uMzIzMDggMS40MjE2Mi0uNzEwODEgMi44NDMyMi0xLjA5ODU0IDQuMjY0ODgtLjQ1MjMyIDEuMzU2OTktLjk2OTI1IDIuNzc4NjItMS41NTA4NSA0LjEzNTY1LS41ODE1OCAxLjI5MjM3LTEuMjI3NzggMi42NDkzOS0xLjkzODU5IDMuOTQxOC0uNzEwODIgMS4yMjc3OC0xLjQ4NjI1IDIuNTIwMTYtMi4zMjYyOSAzLjY4MzMtLjg0MDA2IDEuMjI3OC0xLjc0NDc0IDIuMzkwOTMtMi42NDk0MyAzLjQ4OTQ0LS45NjkzMSAxLjE2MzE4LTIuMDAzMTkgMi4xOTcxLTMuMDM3MTIgMy4yMzEwMS0uNjQ2MTguNTgxNTgtMS4yMjc3NSAxLjA5ODUzLTEuODczOTggMS42MTU0Ni0uNTE2OTQuNDUyMzYtLjk2OTI3Ljg0MDA5LTEuNDg2MjUgMS4yOTIzOS0xLjE2MzE0LjkwNDY4LTIuMzI2MjkgMS43NDQ3NC0zLjYxODY3IDIuNTIwMTktMS4yMjc3OC43NzU0Mi0yLjUyMDE0IDEuNTUwODYtMy44MTI1NCAyLjE5NzA3LTEuMzU3MDIuNjQ2MTktMi43MTQwNCAxLjIyNzc2LTQuMDcxMDQgMS44MDkzNS0xLjM1NzAyLjUxNjkzLTIuNzc4NjQuOTY5MjgtNC4yMDAzMSAxLjM1NzAxLTEuNDIxNjEuMzg3Ny0yLjkwNzg1LjcxMDgxLTQuMzI5NDkuOTY5MjgtMS40ODYyMy4yNTg1OC0yLjk3MjQ5LjM4NzcxLTQuMzk0MTIuNTE2OTctMS4wMzM5Mi4wNjQ3LTIuMDY3ODIuMTI5MTUtMy4xMDE3NS4xMjkxNS0xLjQ4NjI2IDAtMi45NzI0OC0uMTI5MTUtNC4zOTQxMi0uMjU4NTgtMS40ODYyNC0uMTI5MTQtMi45NzI1MS0uMzIzMTQtNC4zOTQxMy0uNjQ2MjMtMS40ODYyNS0uMjU4NTgtMi45MDc5LS42NDYyMS00LjMyOTUzLTEuMDk4NTFoLS4wNjQ3YzEuNDIxNjMtLjEyOTE0IDIuODQzMjctLjI1ODYgNC4yNjQ5Mi0uNTE2OTcgMS40ODYyMi0uMjU4NTggMi45MDc4NS0uNTgxNTYgNC4zMjk1LS45NjkzMSAxLjQyMTYyLS4zODc3MSAyLjg0MzI1LS44NDAwNiA0LjIwMDI2LTEuMzU3IDEuNDIxNjItLjUxNjk2IDIuNzc4NjUtMS4xNjMxMyA0LjA3MTA1LTEuODA5MzYgMS4zNTctLjY0NjIxIDIuNTg0NzgtMS4zNTcgMy44NzcxNi0yLjEzMjQ0IDEuMjI3NzYtLjg0MDA1IDIuNDU1NTQtMS42ODAwOSAzLjYxODY5LTIuNTg0NzkgMS4xNjMxNi0uOTA0NjYgMi4yNjE2Ny0xLjg3Mzk0IDMuMjk1NjItMi45MDc4NiAxLjA5ODUzLS45NjkzMiAyLjA2NzgxLTIuMDY3ODQgMy4wMzcxMS0zLjE2NjM4Ljk2OTI3LTEuMTYzMTIgMS44NzM5Ni0yLjMyNjI4IDIuNzE0MDItMy40ODk0NC4xMjkxNS0uMTkzODcuMjU4NTktLjQ1MjMyLjM4Nzc0LS42NDYxOS42NDYxNy0xLjAzMzkyIDEuMjkyMzUtMi4wNjc4MyAxLjg3MzkyLTMuMTAxNzYuNzEwODMtMS4yOTIzOSAxLjM1NzA0LTIuNTg0NzkgMS45Mzg2LTMuOTQxNzcuNTgxNTktMS4zNTcwMiAxLjA5ODU1LTIuNzE0MDUgMS41NTA4OS00LjEzNTY2LjQ1MjMyLTEuMzU3MDMuNzc1NDItMi43Nzg2NCAxLjA5ODUzLTQuMjAwMjU4LjI1ODU5LTEuNDg2MjU4LjUxNjk0LTIuOTA3OTEuNjQ2MTktNC4zMjk1MjguMTI5MTQtMS40ODYyNDQuMjU4NTctMi45NzI1MDMuMjU4NTctNC4zOTQxMTkgMC0xLjAzMzkyOC0uMDY0OC0yLjA2NzgzLS4xMjkxMi0zLjEwMTczMy0uMTI5MTUtMS40ODYyNDYtLjMyMzExLTIuOTA3OS0uNTE2OTYtNC4zMjk1MTktLjI1ODU5LTEuNDg2MjU3LS41ODE1Ny0yLjkwNzg3My0uOTY5MzEtNC4zMjk1MjktLjQ1MjMxLTEuMzU2OTkxLS45MDQ2Ny0yLjc3ODYzNC0xLjQyMTYxLTQuMTM1NjIzLS41MTY5OS0xLjM1NzAyOC0xLjE2MzE1LTIuNzE0MDQyLTEuODA5MzgtNC4wMDY0NDMtLjcxMDgxLTEuMjkyMzg4LTEuNDIxNjEtMi41ODQ3NzYtMi4xOTcwNC0zLjgxMjUzNi0uODQwMDUtMS4yMjc3Ni0xLjY4MDEzLTIuMzkwOTE3LTIuNTg0OC0zLjU1NDA4Ny0uOTY5MjctMS4wOTg1MzEtMS45Mzg1Ny0yLjE5NzA2LTIuOTcyNTEtMy4yOTU1OS0uNTE2OTQtLjUxNjk0Ny0xLjA5ODUzLTEuMDk4NTMyLTEuNjgwMS0xLjYxNTQ3Ni0yLjkwNzg3LTIuMjYxNy01Ljk0NS00LjM5NDE1OS04Ljk4MjEtNi4zMzI3MzItLjQ1MjMzLS4yNTg1NzQtLjg0MDA1LS40NTIzNDItMS4yOTI0LS42NDYyMTItMi4xMzI0Ni0xLjM1Njk5Mi00LjEzNTY2LTIuMDY3ODMxLTYuMTM4ODUtMi43MTQwMDd6IiBmaWxsPSIjZTAyMzRlIiBmaWxsLXJ1bGU9ImV2ZW5vZGQiIHRyYW5zZm9ybT0idHJhbnNsYXRlKDAgLTQxLjQxMjQ4NykiLz48L3N2Zz4=;" vertex="1" parent="6">
                    <mxGeometry x="58" y="68.71" width="76" height="73.37" as="geometry"/>
                </mxCell>
                <mxCell id="42" value="VPC" style="sketch=0;outlineConnect=0;gradientColor=none;html=1;whiteSpace=wrap;fontSize=12;fontStyle=0;shape=mxgraph.aws4.group;grIcon=mxgraph.aws4.group_vpc;strokeColor=#879196;fillColor=none;verticalAlign=top;align=left;spacingLeft=30;fontColor=#879196;dashed=0;" vertex="1" parent="6">
                    <mxGeometry x="-57" y="-66.5" width="750" height="294.5" as="geometry"/>
                </mxCell>
                <mxCell id="7" value="Private subnet" style="points=[[0,0],[0.25,0],[0.5,0],[0.75,0],[1,0],[1,0.25],[1,0.5],[1,0.75],[1,1],[0.75,1],[0.5,1],[0.25,1],[0,1],[0,0.75],[0,0.5],[0,0.25]];outlineConnect=0;gradientColor=none;html=1;whiteSpace=wrap;fontSize=12;fontStyle=0;container=1;pointerEvents=0;collapsible=0;recursiveResize=0;shape=mxgraph.aws4.group;grIcon=mxgraph.aws4.group_security_group;grStroke=0;strokeColor=#147EBA;fillColor=#E6F2F8;verticalAlign=top;align=left;spacingLeft=30;fontColor=#147EBA;dashed=0;" vertex="1" parent="1">
                    <mxGeometry x="864" y="310" width="269" height="190" as="geometry"/>
                </mxCell>
                <mxCell id="31" style="edgeStyle=none;html=1;" edge="1" parent="1" source="16" target="18">
                    <mxGeometry relative="1" as="geometry"/>
                </mxCell>
                <mxCell id="32" value="" style="edgeStyle=none;html=1;" edge="1" parent="1" source="16" target="21">
                    <mxGeometry relative="1" as="geometry"/>
                </mxCell>
                <mxCell id="16" value="" style="verticalLabelPosition=bottom;html=1;verticalAlign=top;align=center;strokeColor=none;fillColor=#00BEF2;shape=mxgraph.azure.github_code;pointerEvents=1;" vertex="1" parent="1">
                    <mxGeometry x="181" y="348.5" width="50" height="57.5" as="geometry"/>
                </mxCell>
                <mxCell id="25" style="edgeStyle=none;html=1;entryX=0.5;entryY=0;entryDx=0;entryDy=0;entryPerimeter=0;" edge="1" parent="1" source="17" target="16">
                    <mxGeometry relative="1" as="geometry"/>
                </mxCell>
                <mxCell id="17" value="" style="fontColor=#0066CC;verticalAlign=top;verticalLabelPosition=bottom;labelPosition=center;align=center;html=1;outlineConnect=0;fillColor=#CCCCCC;strokeColor=#6881B3;gradientColor=none;gradientDirection=north;strokeWidth=2;shape=mxgraph.networks.pc;" vertex="1" parent="1">
                    <mxGeometry x="169.5" y="235.5" width="70" height="50" as="geometry"/>
                </mxCell>
                <mxCell id="28" style="edgeStyle=none;html=1;entryX=0.5;entryY=1;entryDx=0;entryDy=0;entryPerimeter=0;" edge="1" parent="1" source="18" target="21">
                    <mxGeometry relative="1" as="geometry"/>
                </mxCell>
                <mxCell id="33" style="edgeStyle=none;html=1;entryX=0;entryY=0.5;entryDx=0;entryDy=0;entryPerimeter=0;" edge="1" parent="1" source="18" target="19">
                    <mxGeometry relative="1" as="geometry"/>
                </mxCell>
                <mxCell id="18" value="" style="outlineConnect=0;dashed=0;verticalLabelPosition=bottom;verticalAlign=top;align=center;html=1;shape=mxgraph.aws3.codebuild;fillColor=#759C3E;gradientColor=none;" vertex="1" parent="1">
                    <mxGeometry x="296" y="563" width="60" height="70" as="geometry"/>
                </mxCell>
                <mxCell id="19" value="" style="outlineConnect=0;dashed=0;verticalLabelPosition=bottom;verticalAlign=top;align=center;html=1;shape=mxgraph.aws3.codedeploy;fillColor=#759C3E;gradientColor=none;" vertex="1" parent="1">
                    <mxGeometry x="519" y="558.5" width="67.5" height="81" as="geometry"/>
                </mxCell>
                <mxCell id="20" value="" style="outlineConnect=0;dashed=0;verticalLabelPosition=bottom;verticalAlign=top;align=center;html=1;shape=mxgraph.aws3.codepipeline;fillColor=#759C3E;gradientColor=none;" vertex="1" parent="1">
                    <mxGeometry x="390" y="639.5" width="64" height="70" as="geometry"/>
                </mxCell>
                <mxCell id="24" value="" style="edgeStyle=none;html=1;" edge="1" parent="1" source="21" target="4">
                    <mxGeometry relative="1" as="geometry"/>
                </mxCell>
                <mxCell id="21" value="" style="outlineConnect=0;dashed=0;verticalLabelPosition=bottom;verticalAlign=top;align=center;html=1;shape=mxgraph.aws3.s3;fillColor=#E05243;gradientColor=none;" vertex="1" parent="1">
                    <mxGeometry x="287" y="329.75" width="76.5" height="93" as="geometry"/>
                </mxCell>
                <mxCell id="14" value="" style="outlineConnect=0;dashed=0;verticalLabelPosition=bottom;verticalAlign=top;align=center;html=1;shape=mxgraph.aws3.rds;fillColor=#2E73B8;gradientColor=none;" vertex="1" parent="1">
                    <mxGeometry x="940" y="360" width="103" height="96.5" as="geometry"/>
                </mxCell>
                <mxCell id="35" style="edgeStyle=none;html=1;" edge="1" parent="1">
                    <mxGeometry relative="1" as="geometry">
                        <mxPoint x="723" y="429.3654147104851" as="sourcePoint"/>
                        <mxPoint x="870" y="429" as="targetPoint"/>
                    </mxGeometry>
                </mxCell>
                <mxCell id="37" value="" style="rounded=1;whiteSpace=wrap;html=1;fillColor=none;" vertex="1" parent="1">
                    <mxGeometry x="263" y="560" width="340" height="150" as="geometry"/>
                </mxCell>
                <mxCell id="44" style="edgeStyle=none;html=1;" edge="1" parent="1" source="38" target="2">
                    <mxGeometry relative="1" as="geometry"/>
                </mxCell>
                <mxCell id="38" value="" style="shape=image;verticalLabelPosition=bottom;labelBackgroundColor=#ffffff;verticalAlign=top;aspect=fixed;imageAspect=0;image=data:image/png,iVBORw0KGgoAAAANSUhEUgAAARIAAAC4CAMAAAAYGZMtAAAAgVBMVEX///8AAADx8fGDg4Ozs7MQEBDt7e38/PywsLDW1tYdHR0zMzOhoaFpaWnj4+OsrKzp6emcnJy/v7+SkpJPT0/Hx8fNzc3d3d11dXWKiopiYmIsLCzg4OBCQkIlJSV8fHxKSkpbW1s+Pj6WlpYVFRVvb28nJyc3Nze7u7tNTU1AQEDM0gQ8AAAE8ElEQVR4nO3c63qiOhQG4KwAxigVPIEIHqu1M/d/gRNbrUISce/Z+yFpv/fHPLXoGL8xyUqAYQwAAAAAAAAAAAAAAAAAAAAAAAAAAAAAAAAAAAAA4C+JrhvgHD7qugWuETnvugmukWnXLXBN9t51C1yTjrtugWvEGN2mIe533QLXzIOuW+Caaob5t44v5l03wTXFFKV8XX/b67oJjslPsusmOKY3K7pugmPEyxIDSV28Rrepy6IxviQ1+fDYdRMcw3cHz3fSeBIUufVoFhht5kwGQWZ8SUEhkxvz69Qr393vU3xJtLA2s09mMRNH2pmqsQlthPrDKvAgkhdak3XzK6QyCfs69QVJh2QoPvJyr7rN6O6pyZri8Et/7kUk2zXZqu+QTpXtlXOiifa3Ham52hMH8mxJrCIJYlpYjoY0rJhQTAcLGjY/7JS02YZH1sAdpSIpxJIS8zmor0hMofSWdKz/OqOZ9vG9jCRgOe3NE+fDSFh+UOPsnXQV6ZskXkaiRslXS9e5RWI8PKbDXdfhGzLsLfoaiZqKQ9PRlkjYkYa3B/37B7c38DQSJsvSdIahLZJ0RdPrzxlFpuLN20hUH1AllvbB2yJh7zS45MC3ZDyT5W8kbKaqjH8eCQto9fn1KmhprD88jiQdDPRZpz0Stv8cmVXpb94k8TgSluhl1jORZINzwZq+mbuNp5FcBkix0Nc6T0TCYtpXqtvtLGW7z5GwtNQWNGqN036qe0GLgErbDoPXkajpo7l0D2k9TjT9+qCTfm4X2N7A60jUWqdRkIfGPY9D41kZ0c7+Bl5HwkarxkI+pHIca8b1uUWcY7JeOOFlJK+3R++NHbanxpKCtiva2p7neyRq1ql1ChVJ697yJKK+Gk5sWy6+R8JYVMvgiUhkeV7/9q0DrP+RTGr/3E9EsqNS9TWxITJPw15GUis7RXHfddojSS47sGpk/kZrnHolnq72t5GyNZJs/dFhxHlk/kYr4cYnye4KtrZIejN64Zd7B6ak7c5/vIEhEp5xxufxxM2LQPVI2OZ2MqItkoJodL2bQmz1HXtmjqQiKTbRcqBvXrvAEEm6L68/tkQyOZdoX2tCtSZ+cu+1ivIeTUQ21E4EuUBFos2eMrrOOo8jqYg296tkVf4n+huYI+HrF1fvwjBFIqbXUeFhJOqls5TdRaJ+MdRmYnMkkmXHwy5x8myoKRLGT5de/jCS8Xn+re2l9AzrP1MkIxUJE/nGvjLqkjESJi9bbY8ikaSKvMb2kloTTxtPq0cieizZcElVuMhZunPyKj9zJOob8NF1HkTSG6pvRPNEoOpyg8ZMXI9kEnH5Nt0uOd+uxrtfTs7Clkh6s9P5k6pILPOkquDLTD83ynfNy07qkVShEGExrlTniadTN6/yU5Hos4Qyj85fajWHDAyil8/ZReini2XzCh4Pq9fFm3kJG583p99Pp6FBuZTbcnFNpD5txOWgVm3w08GzSEQuzRfViF8zznrSopIyNV9/IdTRxmMnp9p/Q65xj1HTnMzXLP5kxcqzUeD/J9av7U/6YdI17kZrSn5/m9nivyIWzSULsJmTuzydkkdHN3o6lGDW0QT2e1N+Ko6uo5H4b0g0cze3erokEnSdphHqes0IXUeToes0CUSieXR9NAAAAAAAAAAAAAAAAAAAAAAAAAAAAAAAAAAAAMAP9gcY6jzyu/ShywAAAABJRU5ErkJggg==;" vertex="1" parent="1">
                    <mxGeometry x="380" y="47.120000000000005" width="111.33" height="74.76" as="geometry"/>
                </mxCell>
                <mxCell id="40" value="" style="edgeStyle=none;html=1;endArrow=none;" edge="1" parent="1" source="19">
                    <mxGeometry relative="1" as="geometry">
                        <mxPoint x="580.621565934066" y="558.5" as="sourcePoint"/>
                        <mxPoint x="546.6316239316243" y="460" as="targetPoint"/>
                    </mxGeometry>
                </mxCell>
                <mxCell id="2" value="" style="outlineConnect=0;dashed=0;verticalLabelPosition=bottom;verticalAlign=top;align=center;html=1;shape=mxgraph.aws3.virtual_private_cloud;fillColor=#F58534;gradientColor=none;" vertex="1" parent="1">
                    <mxGeometry x="649" y="216" width="79.5" height="54" as="geometry"/>
                </mxCell>
                <mxCell id="49" value="" style="outlineConnect=0;dashed=0;verticalLabelPosition=bottom;verticalAlign=top;align=center;html=1;shape=mxgraph.aws3.user;fillColor=#D2D3D3;gradientColor=none;" vertex="1" parent="1">
                    <mxGeometry x="991" y="47" width="45" height="63" as="geometry"/>
                </mxCell>
                <mxCell id="51" style="edgeStyle=none;html=1;entryX=1;entryY=0.5;entryDx=0;entryDy=0;" edge="1" parent="1" source="50" target="38">
                    <mxGeometry relative="1" as="geometry"/>
                </mxCell>
                <mxCell id="50" value="" style="fontColor=#0066CC;verticalAlign=top;verticalLabelPosition=bottom;labelPosition=center;align=center;html=1;outlineConnect=0;fillColor=#CCCCCC;strokeColor=#6881B3;gradientColor=none;gradientDirection=north;strokeWidth=2;shape=mxgraph.networks.pc;" vertex="1" parent="1">
                    <mxGeometry x="860" y="51" width="120" height="70" as="geometry"/>
                </mxCell>
                <mxCell id="52" value="user" style="text;html=1;resizable=0;autosize=1;align=center;verticalAlign=middle;points=[];fillColor=none;strokeColor=none;rounded=0;" vertex="1" parent="1">
                    <mxGeometry x="996" y="121.88" width="40" height="20" as="geometry"/>
                </mxCell>
                <mxCell id="53" value="developer" style="text;html=1;resizable=0;autosize=1;align=center;verticalAlign=middle;points=[];fillColor=none;strokeColor=none;rounded=0;" vertex="1" parent="1">
                    <mxGeometry x="164.5" y="203" width="70" height="20" as="geometry"/>
                </mxCell>
            </root>
        </mxGraphModel>
    </diagram>
</mxfile>